<?xml version="1.0" encoding="utf-8"?>
<!-- Generator: Adobe Illustrator 21.0.2, SVG Export Plug-In . SVG Version: 6.00 Build 0)  -->
<svg version="1.1" id="Layer_1" xmlns="http://www.w3.org/2000/svg" xmlns:xlink="http://www.w3.org/1999/xlink" x="0px" y="0px"
	 viewBox="0 0 32 32" style="enable-background:new 0 0 32 32;" xml:space="preserve">
<title>Shape</title>
<desc>Created with Sketch.</desc>
<g id="From-Product-List">
	<g id="_x32_.1.手動加-1" transform="translate(-180.000000, -284.000000)">
		<g id="Group-2" transform="translate(140.000000, 146.000000)">
			<g id="Group-4" transform="translate(40.000000, 132.000000)">
				<g id="Group-5" transform="translate(0.000000, 2.000000)">
					<g id="Group-3">
						<path id="Shape" d="M24.3,17.3h-4.9c0.5-1.2,0.8-2.4,0.8-3.7c0-0.1,0-0.3,0-0.4h0c0-2.3-1.8-4.1-4.1-4.1
							c-2.3,0-4.1,1.8-4.1,4.1c0,2.6-1.8,4.7-4.1,5.3v0.2H6.4C5.6,18.6,5,19.2,5,20v9.6C5,30.4,5.6,31,6.4,31h4.1
							c0.3,0,0.5-0.1,0.7-0.2c0.2,0.1,0.4,0.2,0.7,0.2h11c0.8,0,2.4-0.2,2.7-1.4L27,20C27,18.3,26.4,17.3,24.3,17.3z M22.9,28.3
							h-2.3h-7.7c-0.6,0-1-0.4-1-0.9v-6.5c0-0.3,0.2-0.6,0.6-0.8c0.2-0.9,0.5-1.8,0.8-2.3c0.1-0.2,0.2-0.3,0.3-0.5h0
							c0.1-0.2,0.2-0.3,0.2-0.5c0.4-0.8,0.7-1.7,0.7-1.7l0.2-2c0-0.8,0.6-1.4,1.4-1.4c0.8,0,1.4,0.6,1.4,1.4v5.6l0,0
							c0,0.7,0.6,1.3,1.4,1.3h5.5L22.9,28.3z"/>
					</g>
				</g>
			</g>
		</g>
	</g>
</g>
</svg>
