<?xml version="1.0" encoding="utf-8"?>
<!-- Generator: Adobe Illustrator 19.2.1, SVG Export Plug-In . SVG Version: 6.00 Build 0)  -->
<svg version="1.1" id="Layer_1" xmlns="http://www.w3.org/2000/svg" xmlns:xlink="http://www.w3.org/1999/xlink" x="0px" y="0px"
	 viewBox="0 0 32 32" style="enable-background:new 0 0 32 32;" xml:space="preserve">
<path d="M26.4,15.1l2.8,1.6l-1,1.8l-0.4,0.7L22.2,29L20,29.5l-0.6-2.2l5.6-9.8l0.6-1L26.4,15.1 M25.7,12.3l-1.8,3.1l0,0l-0.6,1.1
	L17.2,27l1.3,5l5-1.3l6-10.5l0.4-0.7l2-3.5L25.7,12.3L25.7,12.3z M4,6h3v4h14V6h3v4.7v0.4h2v-0.3V4h-5V2h-3c0-1.1-0.9-2-2-2h-4
	c-1.1,0-2,0.9-2,2H7v2H2v26h13.8v-2H4V6z M9,4h3V3c0-0.6,0.4-1,1-1h2c0.6,0,1,0.4,1,1v1h3v4h-4h-2H9V4z M20.2,13.2H6.1v2h14.1V13.2z
	 M20.2,17.2H6.1v2h14.1V17.2z M6.1,23.4H14v-2H6.1V23.4z"/>
</svg>
