<svg version="1.1" id="Layer_1" xmlns="http://www.w3.org/2000/svg" xmlns:xlink="http://www.w3.org/1999/xlink" x="0px" y="0px"
	 viewBox="0 0 32 32" style="enable-background:new 0 0 32 32;" xml:space="preserve">
<path d="M28,5.4c2.5,2.8,4,6.5,4,10.6c0,8.8-7.2,16-16,16c-4.1,0-7.8-1.5-10.6-4l0,0l-0.1-0.1c-0.4-0.4-0.8-0.8-1.2-1.2L4,26.6l0,0
	C1.5,23.8,0,20.1,0,16C0,7.2,7.2,0,16,0c4.1,0,7.8,1.5,10.6,4l0,0l0.1,0.1C27.1,4.5,27.5,4.9,28,5.4L28,5.4L28,5.4z M16,30
	c7.7,0,14-6.3,14-14c0-3.5-1.3-6.7-3.5-9.1L6.9,26.5C9.3,28.7,12.5,30,16,30z M16,2C8.3,2,2,8.3,2,16c0,3.5,1.3,6.7,3.5,9.1
	L25.1,5.5C22.7,3.3,19.5,2,16,2z"/>
</svg>
