<?xml version="1.0" encoding="utf-8"?>
<svg viewBox="990 9 14 14" version="1.1" xmlns="http://www.w3.org/2000/svg" xmlns:xlink="http://www.w3.org/1999/xlink">
    <!-- Generator: Sketch 3.8.3 (29802) - http://www.bohemiancoding.com/sketch -->
    <title>reply</title>
    <path d="M990.933324,12.2614048 L990.933324,21.5993137 C990.933324,21.8575068 991.142026,22.0662091 991.399753,22.0662091 L1000.73393,22.0662091 C1000.99212,22.0662091 1001.20082,21.8575068 1001.20082,21.5993137 L1001.20082,14.595882 L1002.13415,14.595882 L1002.13415,22.0662091 C1002.13415,22.5816617 1001.71627,23 1001.20082,23 L990.933324,23 C990.417871,23 990,22.5816617 990,22.0662091 L990,11.7949762 C990,11.2790567 990.417871,10.8607184 990.933324,10.8607184 L998.400383,10.8607184 L998.400383,11.7949762 L991.399753,11.7949762 C991.142026,11.7949762 990.933324,12.0036785 990.933324,12.2614048 L990.933324,12.2614048 Z M996.734033,16.9233558 L996.073843,16.2631656 L1003.33453,9.00014007 L1003.99426,9.66033023 L996.734033,16.9233558 Z" id="Page-1" fill-rule="evenodd"></path>
</svg>