<?xml version="1.0" encoding="utf-8"?>
<!-- Generator: Adobe Illustrator 19.0.0, SVG Export Plug-In . SVG Version: 6.00 Build 0)  -->
<svg version="1.1" id="Layer_1" xmlns="http://www.w3.org/2000/svg" xmlns:xlink="http://www.w3.org/1999/xlink" x="0px" y="0px"
	 viewBox="0 0 1024 1024" style="enable-background:new 0 0 1024 1024;" xml:space="preserve">
<path d="M320,736c17.7,0,32-14.3,32-32V397.3l41.4,41.4c6.2,6.2,14.4,9.4,22.6,9.4s16.4-3.1,22.6-9.4c12.5-12.5,12.5-32.8,0-45.3
	l-96-96c-0.4-0.4-0.8-0.7-1.2-1.1c-0.2-0.2-0.4-0.3-0.6-0.5c-0.2-0.2-0.4-0.4-0.6-0.5c-0.2-0.2-0.5-0.4-0.7-0.6
	c-0.2-0.1-0.3-0.3-0.5-0.4c-0.3-0.2-0.6-0.4-0.8-0.6c-0.1-0.1-0.3-0.2-0.4-0.3c-0.3-0.2-0.6-0.4-0.9-0.6c-0.1-0.1-0.3-0.2-0.4-0.3
	c-0.3-0.2-0.6-0.3-0.9-0.5c-0.2-0.1-0.3-0.2-0.5-0.3c-0.3-0.1-0.6-0.3-0.8-0.4c-0.2-0.1-0.4-0.2-0.6-0.3c-0.3-0.1-0.5-0.2-0.8-0.4
	c-0.2-0.1-0.4-0.2-0.7-0.3c-0.2-0.1-0.5-0.2-0.7-0.3c-0.3-0.1-0.5-0.2-0.8-0.3c-0.2-0.1-0.4-0.1-0.6-0.2c-0.3-0.1-0.6-0.2-0.9-0.3
	c-0.2-0.1-0.4-0.1-0.6-0.2c-0.3-0.1-0.6-0.2-1-0.3c-0.2,0-0.4-0.1-0.5-0.1c-0.3-0.1-0.7-0.2-1-0.2c-0.2,0-0.4-0.1-0.5-0.1
	c-0.3-0.1-0.7-0.1-1-0.2c-0.2,0-0.4-0.1-0.6-0.1c-0.3,0-0.6-0.1-0.9-0.1c-0.3,0-0.6,0-0.9-0.1c-0.2,0-0.5,0-0.7,0
	c-1.1-0.1-2.1-0.1-3.2,0c-0.2,0-0.5,0-0.7,0c-0.3,0-0.6,0-0.9,0.1c-0.3,0-0.6,0.1-0.9,0.1c-0.2,0-0.4,0.1-0.6,0.1
	c-0.3,0-0.7,0.1-1,0.2c-0.2,0-0.4,0.1-0.5,0.1c-0.3,0.1-0.7,0.1-1,0.2c-0.2,0-0.4,0.1-0.5,0.1c-0.3,0.1-0.6,0.2-1,0.3
	c-0.2,0.1-0.4,0.1-0.6,0.2c-0.3,0.1-0.6,0.2-0.9,0.3c-0.2,0.1-0.4,0.1-0.6,0.2c-0.3,0.1-0.5,0.2-0.8,0.3c-0.2,0.1-0.5,0.2-0.7,0.3
	c-0.2,0.1-0.5,0.2-0.7,0.3c-0.3,0.1-0.5,0.2-0.8,0.4c-0.2,0.1-0.4,0.2-0.6,0.3c-0.3,0.1-0.6,0.3-0.8,0.4c-0.2,0.1-0.3,0.2-0.5,0.3
	c-0.3,0.2-0.6,0.3-0.9,0.5c-0.2,0.1-0.3,0.2-0.4,0.3c-0.3,0.2-0.6,0.4-0.9,0.6c-0.1,0.1-0.3,0.2-0.4,0.3c-0.3,0.2-0.6,0.4-0.8,0.6
	c-0.2,0.1-0.3,0.3-0.5,0.4c-0.2,0.2-0.5,0.4-0.7,0.6c-0.2,0.2-0.4,0.4-0.6,0.5c-0.2,0.2-0.4,0.3-0.6,0.5c-0.4,0.4-0.8,0.7-1.2,1.1
	l-96,96c-12.5,12.5-12.5,32.8,0,45.3c12.5,12.5,32.8,12.5,45.3,0l41.4-41.4V704C288,721.7,302.3,736,320,736z"/>
<path d="M544,320v128c0,17.7,14.3,32,32,32s32-14.3,32-32V320c0-17.7-14.3-32-32-32S544,302.3,544,320z"/>
<path d="M949,587c-48.4-48.4-112.6-75-181-75s-132.7,26.6-181,75c-48.4,48.4-75,112.6-75,181s26.6,132.7,75,181
	c48.4,48.4,112.6,75,181,75s132.7-26.6,181-75c48.4-48.4,75-112.6,75-181S997.4,635.3,949,587z M768,960c-105.9,0-192-86.1-192-192
	s86.1-192,192-192s192,86.1,192,192S873.9,960,768,960z"/>
<path d="M918.6,681.4c-12.5-12.5-32.8-12.5-45.3,0L736,818.7l-73.4-73.4c-12.5-12.5-32.8-12.5-45.3,0c-12.5,12.5-12.5,32.8,0,45.3
	l96,96c6.2,6.2,14.4,9.4,22.6,9.4s16.4-3.1,22.6-9.4l160-160C931.1,714.1,931.1,693.9,918.6,681.4z"/>
<path d="M448,896c-102.6,0-199-39.9-271.5-112.5C103.9,711,64,614.6,64,512c0-102.6,39.9-199,112.5-271.5S345.4,128,448,128
	c44.4,0,88,7.5,129.4,22.3c40,14.3,77.2,35.1,110.6,61.8c66.7,53.5,114.3,128.5,133.8,211.2c4.1,17.2,21.3,27.8,38.5,23.8
	c17.2-4.1,27.8-21.3,23.8-38.5c-11.5-48.7-31.1-94.9-58.1-137.3c-26.5-41.6-59.5-78.3-98-109.2c-38.9-31.2-82.3-55.4-129-72.2
	C550.6,72.8,499.8,64,448,64c-60.5,0-119.2,11.8-174.4,35.2c-53.4,22.6-101.3,54.9-142.4,96s-73.4,89-96,142.4
	C11.8,392.8,0,451.5,0,512s11.8,119.2,35.2,174.4c22.6,53.4,54.9,101.3,96,142.4s89,73.4,142.4,96C328.8,948.2,387.5,960,448,960
	c17.7,0,32-14.3,32-32S465.7,896,448,896z"/>
</svg>
