<?xml version="1.0" encoding="utf-8"?>
<!-- Generator: Adobe Illustrator 19.0.0, SVG Export Plug-In . SVG Version: 6.00 Build 0)  -->
<svg version="1.1" id="Layer_1" xmlns="http://www.w3.org/2000/svg" xmlns:xlink="http://www.w3.org/1999/xlink" x="0px" y="0px"
	 viewBox="0 0 1024 1024" style="enable-background:new 0 0 1024 1024;" xml:space="preserve">
<path d="M983.8,312.7C958,251.7,921,197,874,150C827,103,772.3,66,711.3,40.2C648.2,13.5,581.1,0,512,0S375.8,13.5,312.7,40.2
	C251.7,66,197,103,150,150C103,197,66,251.7,40.2,312.7C13.5,375.8,0,442.9,0,512s13.5,136.2,40.2,199.3C66,772.3,103,827,150,874
	c47,47,101.8,83.9,162.7,109.7c63.1,26.7,130.2,40.2,199.3,40.2s136.2-13.5,199.3-40.2C772.3,958,827,921,874,874
	c47-47,83.9-101.8,109.7-162.7c26.7-63.1,40.2-130.2,40.2-199.3S1010.5,375.8,983.8,312.7z M924.8,686.4
	c-22.6,53.3-54.9,101.3-96,142.4c-41.2,41.2-89.1,73.5-142.4,96C631.2,948.2,572.5,960,512,960c-60.5,0-119.2-11.8-174.4-35.2
	c-53.3-22.6-101.3-54.9-142.4-96c-41.2-41.2-73.5-89.1-96-142.4C75.8,631.2,64,572.5,64,512c0-60.5,11.8-119.2,35.2-174.4
	c22.6-53.3,54.9-101.3,96-142.4c41.2-41.2,89.1-73.5,142.4-96C392.8,75.8,451.5,64,512,64c60.5,0,119.2,11.8,174.4,35.2
	c53.3,22.6,101.3,54.9,142.4,96c41.2,41.2,73.5,89.1,96,142.4C948.2,392.8,960,451.5,960,512C960,572.5,948.2,631.2,924.8,686.4z"/>
<path d="M374.6,265.4C374.6,265.3,374.6,265.3,374.6,265.4c-0.4-0.4-0.8-0.8-1.1-1.1c-0.2-0.2-0.4-0.3-0.6-0.5
	c-0.2-0.2-0.4-0.3-0.6-0.5c-0.3-0.2-0.5-0.4-0.8-0.6c-0.2-0.1-0.3-0.2-0.5-0.4c-0.3-0.2-0.6-0.4-0.9-0.6c-0.1-0.1-0.3-0.2-0.4-0.3
	c-0.3-0.2-0.6-0.4-0.9-0.6c-0.1-0.1-0.3-0.2-0.4-0.3c-0.3-0.2-0.6-0.3-0.9-0.5c-0.2-0.1-0.3-0.2-0.5-0.3c-0.3-0.2-0.6-0.3-0.9-0.4
	c-0.2-0.1-0.4-0.2-0.6-0.3c-0.3-0.1-0.5-0.2-0.8-0.4c-0.2-0.1-0.4-0.2-0.7-0.3c-0.2-0.1-0.5-0.2-0.7-0.3c-0.3-0.1-0.5-0.2-0.8-0.3
	c-0.2-0.1-0.4-0.1-0.6-0.2c-0.3-0.1-0.6-0.2-0.9-0.3c-0.2-0.1-0.4-0.1-0.6-0.2c-0.3-0.1-0.6-0.2-0.9-0.3c-0.2,0-0.4-0.1-0.5-0.1
	c-0.3-0.1-0.7-0.2-1-0.2c-0.2,0-0.4-0.1-0.6-0.1c-0.3-0.1-0.7-0.1-1-0.2c-0.2,0-0.4-0.1-0.6-0.1c-0.3,0-0.6-0.1-0.9-0.1
	c-0.3,0-0.6,0-0.9-0.1c-0.2,0-0.5,0-0.7,0c-1.1-0.1-2.1-0.1-3.2,0c-0.2,0-0.5,0-0.7,0c-0.3,0-0.6,0-0.9,0.1c-0.3,0-0.6,0.1-0.9,0.1
	c-0.2,0-0.4,0.1-0.6,0.1c-0.3,0-0.7,0.1-1,0.2c-0.2,0-0.4,0.1-0.6,0.1c-0.3,0.1-0.7,0.1-1,0.2c-0.2,0-0.4,0.1-0.5,0.1
	c-0.3,0.1-0.6,0.2-0.9,0.3c-0.2,0.1-0.4,0.1-0.6,0.2c-0.3,0.1-0.6,0.2-0.9,0.3c-0.2,0.1-0.4,0.1-0.6,0.2c-0.3,0.1-0.5,0.2-0.8,0.3
	c-0.2,0.1-0.5,0.2-0.7,0.3c-0.2,0.1-0.4,0.2-0.7,0.3c-0.3,0.1-0.5,0.2-0.8,0.4c-0.2,0.1-0.4,0.2-0.6,0.3c-0.3,0.1-0.6,0.3-0.9,0.4
	c-0.2,0.1-0.3,0.2-0.5,0.3c-0.3,0.2-0.6,0.3-0.9,0.5c-0.1,0.1-0.3,0.2-0.4,0.3c-0.3,0.2-0.6,0.4-0.9,0.6c-0.1,0.1-0.3,0.2-0.4,0.3
	c-0.3,0.2-0.6,0.4-0.9,0.6c-0.2,0.1-0.3,0.2-0.5,0.4c-0.3,0.2-0.5,0.4-0.8,0.6c-0.2,0.2-0.4,0.3-0.6,0.5c-0.2,0.2-0.4,0.3-0.6,0.5
	c-0.4,0.3-0.7,0.7-1.1,1c0,0-0.1,0.1-0.1,0.1l-96,96c-12.5,12.5-12.5,32.8,0,45.3c12.5,12.5,32.8,12.5,45.3,0l41.4-41.4V736
	c0,17.7,14.3,32,32,32s32-14.3,32-32V365.3l41.4,41.4c6.2,6.2,14.4,9.4,22.6,9.4s16.4-3.1,22.6-9.4c12.5-12.5,12.5-32.8,0-45.3
	L374.6,265.4z"/>
<path d="M745.4,617.4L704,658.7V288c0-17.7-14.3-32-32-32s-32,14.3-32,32v370.7l-41.4-41.4c-12.5-12.5-32.8-12.5-45.3,0
	c-12.5,12.5-12.5,32.8,0,45.3l96,96c0.1,0.1,0.3,0.3,0.4,0.4c0.2,0.2,0.5,0.5,0.7,0.7c0.2,0.2,0.5,0.4,0.7,0.6
	c0.2,0.1,0.3,0.3,0.5,0.4c0.3,0.2,0.5,0.4,0.8,0.6c0.1,0.1,0.3,0.2,0.4,0.3c0.3,0.2,0.6,0.4,0.9,0.6c0.1,0.1,0.3,0.2,0.4,0.3
	c0.3,0.2,0.6,0.4,0.9,0.6c0.1,0.1,0.3,0.2,0.4,0.3c0.3,0.2,0.6,0.4,0.9,0.5c0.2,0.1,0.3,0.2,0.5,0.3c0.3,0.2,0.6,0.3,0.9,0.4
	c0.2,0.1,0.4,0.2,0.6,0.3c0.3,0.1,0.5,0.2,0.8,0.4c0.2,0.1,0.4,0.2,0.7,0.3c0.2,0.1,0.5,0.2,0.7,0.3c0.3,0.1,0.5,0.2,0.8,0.3
	c0.2,0.1,0.4,0.1,0.6,0.2c0.3,0.1,0.6,0.2,0.9,0.3c0.2,0.1,0.4,0.1,0.6,0.2c0.3,0.1,0.6,0.2,1,0.3c0.2,0,0.3,0.1,0.5,0.1
	c0.3,0.1,0.7,0.2,1,0.2c0.2,0,0.4,0.1,0.5,0.1c0.3,0.1,0.7,0.1,1,0.2c0.2,0,0.4,0.1,0.6,0.1c0.3,0,0.6,0.1,0.9,0.1
	c0.3,0,0.5,0,0.8,0.1c0.2,0,0.5,0,0.7,0.1c0.5,0,1.1,0,1.6,0s1.1,0,1.6,0c0.3,0,0.5,0,0.7-0.1c0.3,0,0.5,0,0.8-0.1
	c0.3,0,0.6-0.1,0.9-0.1c0.2,0,0.4,0,0.6-0.1c0.3,0,0.7-0.1,1-0.2c0.2,0,0.4-0.1,0.5-0.1c0.3-0.1,0.7-0.1,1-0.2
	c0.2,0,0.3-0.1,0.5-0.1c0.3-0.1,0.6-0.2,1-0.3c0.2-0.1,0.4-0.1,0.6-0.2c0.3-0.1,0.6-0.2,0.9-0.3c0.2-0.1,0.4-0.1,0.6-0.2
	c0.3-0.1,0.5-0.2,0.8-0.3c0.2-0.1,0.5-0.2,0.7-0.3c0.2-0.1,0.4-0.2,0.7-0.3c0.3-0.1,0.5-0.2,0.8-0.4c0.2-0.1,0.4-0.2,0.6-0.3
	c0.3-0.1,0.6-0.3,0.9-0.4c0.2-0.1,0.3-0.2,0.5-0.3c0.3-0.2,0.6-0.3,0.9-0.5c0.1-0.1,0.3-0.2,0.4-0.3c0.3-0.2,0.6-0.4,0.9-0.6
	c0.1-0.1,0.3-0.2,0.4-0.3c0.3-0.2,0.6-0.4,0.9-0.6c0.1-0.1,0.3-0.2,0.4-0.3c0.3-0.2,0.6-0.4,0.8-0.6c0.2-0.1,0.3-0.3,0.5-0.4
	c0.2-0.2,0.5-0.4,0.7-0.6c0.2-0.2,0.5-0.5,0.7-0.7c0.1-0.1,0.3-0.3,0.4-0.4l96-96c12.5-12.5,12.5-32.8,0-45.3
	C778.1,604.9,757.9,604.9,745.4,617.4z"/>
</svg>
