<?xml version="1.0" encoding="utf-8"?>
<!-- Generator: Adobe Illustrator 19.1.0, SVG Export Plug-In . SVG Version: 6.00 Build 0)  -->
<svg version="1.1" id="Layer_1" xmlns="http://www.w3.org/2000/svg" xmlns:xlink="http://www.w3.org/1999/xlink" x="0px" y="0px"
	 viewBox="0 0 32 32" style="enable-background:new 0 0 32 32;" xml:space="preserve">
<path d="M32,22.1h-2c0-3.6-1.4-7.1-4.1-9.8c-3.9-3.9-9.6-5-14.6-3.3l5.4,5.4c0.4,0.4,0.4,1,0,1.4c-0.4,0.4-1,0.4-1.4,0L9.4,9.9
	L7.9,8.4c0,0,0.1,0,0.1-0.1c-0.1-0.2-0.1-0.3,0-0.5c0,0,0-0.1,0-0.1c0-0.1,0.1-0.2,0.2-0.3c0,0,0-0.1,0.1-0.1c0,0,0,0,0.1,0l7-7
	c0.4-0.4,1-0.4,1.4,0c0.4,0.4,0.4,1,0,1.4l-5.2,5.2c5.4-1.6,11.5-0.3,15.8,4C30.4,14,32,18.1,32,22.1z M20.3,19.3H2V30h18.3V19.3
	 M20.9,17.3c0.8,0,1.4,0.6,1.4,1.4v11.9c0,0.8-0.6,1.4-1.4,1.4H1.4C0.6,32,0,31.4,0,30.6V18.7c0-0.8,0.6-1.4,1.4-1.4H20.9L20.9,17.3
	z"/>
</svg>
