<?xml version="1.0" encoding="utf-8"?><svg width="64" height="64" viewBox="0 0 64 64" xmlns="http://www.w3.org/2000/svg" xmlns:xlink="http://www.w3.org/1999/xlink"><svg data-name="Layer 1" fill="#D3C1E5" viewBox="0 0 32 32" width="32" height="32" id="L1VzZXJzL3poYW5neWFuL3Byb2plY3Qvdi13ZWIvcHVibGljL3N2Zy91c2VyLnN2Zw==" xmlns="http://www.w3.org/2000/svg"><path d="M16 1.94A14.06 14.06 0 1 0 30.06 16 14.06 14.06 0 0 0 16 1.94zm0 4.22a4.22 4.22 0 1 1-4.22 4.22A4.21 4.21 0 0 1 16 6.16zm0 20a10.12 10.12 0 0 1-8.43-4.53c0-2.8 5.62-4.33 8.43-4.33s8.39 1.53 8.43 4.33A10.12 10.12 0 0 1 16 26.12z"/></svg><svg fill="#453257" viewBox="0 0 32 32" width="32" height="32" id="L1VzZXJzL3poYW5neWFuL3Byb2plY3Qvdi13ZWIvcHVibGljL3N2Zy9ob21lLnN2Zw==" x="32" xmlns="http://www.w3.org/2000/svg"><path d="M13.1 28.3v-8.7h5.8v8.7h7.2V16.7h4.4L16 3.7l-14.5 13h4.3v11.6h7.3z"/></svg><svg data-name="Layer 1" fill="#D3C1E5" viewBox="0 0 32 32" width="32" height="32" id="L1VzZXJzL3poYW5neWFuL3Byb2plY3Qvdi13ZWIvcHVibGljL3N2Zy9wYXNzd29yZC5zdmc=" y="32" xmlns="http://www.w3.org/2000/svg"><path d="M13.33 30.67h5.33V28H24v-5.33h-5.33v-5.8a8 8 0 1 0-5.33 0v13.8zM16 12a2.67 2.67 0 1 1 2.67-2.67A2.67 2.67 0 0 1 16 12z"/></svg></svg>